Coordinates
version=1
nRows=12
nColumns=24
inDegrees=yes

Units are S.I. units (second, meters, Newtons, ...)
Angles are in degrees.

endheader
time	pelvis_tilt	pelvis_list	pelvis_rotation	pelvis_tx	pelvis_ty	pelvis_tz	hip_flexion_r	hip_adduction_r	hip_rotation_r	knee_angle_r	ankle_angle_r	subtalar_angle_r	mtp_angle_r	hip_flexion_l	hip_adduction_l	hip_rotation_l	knee_angle_l	ankle_angle_l	subtalar_angle_l	mtp_angle_l	lumbar_extension	lumbar_bending	lumbar_rotation
      1.35783333	     -1.32672003	      1.61088883	     -5.84973520	      0.85915000	      0.96015230	      0.30722294	    -21.12484318	     -1.62919000	     -0.32394921	     -5.67104394	     19.67308932	      3.17785304	     -1.69442767	     27.47515186	     -0.70768393	     -1.94677878	      7.07874387	      1.89932533	     -4.92852351	     -1.89516259	    -12.93369054	      3.07866398	     10.77693871
      1.36200000	     -1.28969013	      1.69541845	     -5.93217917	      0.86513897	      0.95942892	      0.30698993	    -21.34348423	     -1.81147979	     -0.42676029	     -6.00448983	     19.46613513	      3.23112309	      2.39056848	     27.57840921	     -0.64827443	     -1.59171906	      6.36023918	      1.90216002	     -5.45606440	     -1.72584647	    -12.97232825	      2.93286788	     10.76668362
      1.36616667	     -1.27469919	      1.80586172	     -6.01525245	      0.87121962	      0.95871221	      0.30676707	    -21.55026782	     -2.01472033	     -0.50758448	     -6.31930984	     19.24423945	      3.26844238	      2.40301114	     27.72901688	     -0.56141850	     -1.38934072	      5.54992660	      1.96181648	     -5.72407685	     -1.72153935	    -12.95306686	      2.73187744	     10.77882072
      1.37033333	     -1.29385989	      1.91729365	     -6.08495953	      0.87733859	      0.95794348	      0.30646718	    -21.68969439	     -2.22041226	     -0.66732388	     -6.70649062	     19.10255961	      3.47666272	      2.50904281	     27.88311206	     -0.46175631	     -1.01588723	      4.78365772	      1.84539882	     -6.32650893	     -1.70862306	    -12.91153691	      2.55903649	     10.82032393
      1.37450000	     -1.27529680	      2.04935677	     -6.17532414	      0.88352869	      0.95726841	      0.30623425	    -21.88423253	     -2.44915279	     -0.75403905	     -7.05361775	     18.84687266	      3.47371860	      2.56381675	     28.00695122	     -0.34443702	     -0.81574779	      3.96059345	      1.81683173	     -6.69167196	     -1.69959503	    -12.88620338	      2.31822440	     10.81711897
      1.37866667	     -1.30351956	      2.17898175	     -6.25288072	      0.88976579	      0.95653772	      0.30591770	    -22.01123515	     -2.67422246	     -0.89638792	     -7.44139233	     18.63321413	      3.60281965	      2.77433160	     28.14915925	     -0.21550210	     -0.44963154	      3.19534569	      1.50007210	     -7.46304169	     -1.66774615	    -12.81895214	      2.13360493	     10.86396256
      1.38283333	     -1.20075612	      2.35326751	     -6.32853078	      0.89608394	      0.95600773	      0.30563121	    -22.29776912	     -2.95085489	     -1.05380958	     -7.78173761	     18.29714769	      3.55073040	      4.58612732	     28.12213615	     -0.02259453	     -0.15932693	      2.48032325	      1.14943841	     -8.15114496	     -1.33589185	    -12.91043650	      1.86313643	     10.77954580
      1.38700000	     -1.32831539	      2.48376627	     -6.44963547	      0.90240172	      0.95522968	      0.30536065	    -22.28050404	     -3.18069860	     -1.10255247	     -8.23081946	     17.99289531	      3.57903293	      4.76990291	     28.39710371	      0.08440390	     -0.02229817	      1.61929945	      0.84875800	     -8.65658089	     -1.31069173	    -12.69750417	      1.66719550	     10.90242373
      1.39116667	     -1.34700213	      2.66582850	     -6.54281832	      0.90882398	      0.95460888	      0.30505343	    -22.40154910	     -3.46238325	     -1.23104348	     -8.63808804	     17.65185613	      3.57561845	      5.05689267	     28.50587024	      0.27643978	      0.17955387	      0.86711460	      0.35116440	     -9.37427123	     -1.27925040	    -12.60740341	      1.39839686	     10.93662945
      1.39533333	     -1.38364574	      2.84671186	     -6.64946592	      0.91526709	      0.95399786	      0.30475060	    -22.48294167	     -3.74546466	     -1.33473710	     -9.07854759	     17.27433166	      3.52833591	      5.44022942	     28.63918088	      0.46376544	      0.33353191	      0.10460382	     -0.20209527	    -10.06781341	     -1.22653538	    -12.50696774	      1.13797221	     10.97575653
      1.39950000	     -1.38662528	      3.06519334	     -6.74517430	      0.92178112	      0.95345827	      0.30441600	    -22.59031655	     -4.06875376	     -1.49715928	     -9.52761561	     16.78198566	      3.37827801	     10.65958523	     28.73547543	      0.70235067	      0.42245153	     -0.65784846	     -0.76722165	    -10.70026823	     -0.35212053	    -12.42880873	      0.83035594	     10.91872944
      1.40366667	     -1.46338795	      3.26164324	     -6.85949272	      0.92831876	      0.95288193	      0.30411959	    -22.60983574	     -4.36313562	     -1.56874732	     -9.99102211	     16.31510685	      3.27593387	     10.73637437	     28.91213618	      0.90140949	      0.44260595	     -1.41741062	     -1.45425553	    -11.30203723	     -0.36511642	    -12.26028885	      0.54840734	     11.03722656
